<svg xmlns="http://www.w3.org/2000/svg" xmlns:xlink="http://www.w3.org/1999/xlink" width="2048" zoomAndPan="magnify" viewBox="0 0 1536 1535.999932" height="2048" preserveAspectRatio="xMidYMid meet" version="1.0"><defs><g/></defs><g fill="#374151" fill-opacity="1"><g transform="translate(254.748454, 899.624903)"><g><path d="M 106.9375 72.09375 C 91.445312 72.09375 79.296875 67.882812 70.484375 59.46875 C 61.671875 51.0625 57.265625 39.113281 57.265625 23.625 L 57.265625 -54.0625 C 57.265625 -65.007812 55.460938 -72.6875 51.859375 -77.09375 C 48.253906 -81.5 41.78125 -84.101562 32.4375 -84.90625 L 16.828125 -86.109375 L 16.828125 -124.15625 L 32.4375 -125.359375 C 41.78125 -126.160156 48.253906 -128.828125 51.859375 -133.359375 C 55.460938 -137.898438 57.265625 -145.507812 57.265625 -156.1875 L 57.265625 -233.890625 C 57.265625 -249.378906 61.671875 -261.328125 70.484375 -269.734375 C 79.296875 -278.148438 91.445312 -282.359375 106.9375 -282.359375 L 154.1875 -282.359375 L 154.1875 -243.5 L 125.75 -243.5 C 119.882812 -243.5 115.546875 -242.097656 112.734375 -239.296875 C 109.929688 -236.492188 108.53125 -232.019531 108.53125 -225.875 L 108.53125 -148.984375 C 108.53125 -140.972656 106.859375 -133.695312 103.515625 -127.15625 C 100.179688 -120.613281 95.644531 -115.335938 89.90625 -111.328125 C 84.164062 -107.328125 77.289062 -105.0625 69.28125 -104.53125 L 69.28125 -104.9375 C 77.289062 -104.664062 84.164062 -102.59375 89.90625 -98.71875 C 95.644531 -94.851562 100.179688 -89.648438 103.515625 -83.109375 C 106.859375 -76.566406 108.53125 -69.289062 108.53125 -61.28125 L 108.53125 15.625 C 108.53125 21.757812 109.929688 26.226562 112.734375 29.03125 C 115.546875 31.832031 119.882812 33.234375 125.75 33.234375 L 154.1875 33.234375 L 154.1875 72.09375 Z M 106.9375 72.09375 "/></g></g></g><g fill="#374151" fill-opacity="1"><g transform="translate(414.948192, 899.624903)"><g><path d="M 97.328125 4 C 74.359375 4 57.132812 -2.203125 45.65625 -14.609375 C 34.175781 -27.023438 28.4375 -45.117188 28.4375 -68.890625 L 28.4375 -282.359375 L 80.5 -282.359375 L 80.5 -72.09375 C 80.5 -64.613281 81.566406 -58.335938 83.703125 -53.265625 C 85.835938 -48.191406 89.039062 -44.316406 93.3125 -41.640625 C 97.582031 -38.972656 102.789062 -37.640625 108.9375 -37.640625 C 112.40625 -37.640625 115.738281 -37.835938 118.9375 -38.234375 C 122.144531 -38.640625 125.351562 -39.242188 128.5625 -40.046875 L 129.359375 -0.40625 C 124.015625 0.9375 118.804688 2.003906 113.734375 2.796875 C 108.660156 3.597656 103.191406 4 97.328125 4 Z M 97.328125 4 "/></g></g></g><g fill="#374151" fill-opacity="1"><g transform="translate(548.714941, 899.624903)"><g><path d="M 103.734375 4 C 92.253906 4 81.171875 3.0625 70.484375 1.1875 C 59.804688 -0.675781 49.992188 -3.207031 41.046875 -6.40625 C 32.109375 -9.613281 24.300781 -13.753906 17.625 -18.828125 L 31.234375 -53.671875 C 37.910156 -49.398438 45.253906 -45.726562 53.265625 -42.65625 C 61.273438 -39.582031 69.550781 -37.3125 78.09375 -35.84375 C 86.632812 -34.375 94.910156 -33.640625 102.921875 -33.640625 C 116.804688 -33.640625 127.15625 -35.570312 133.96875 -39.4375 C 140.78125 -43.3125 144.1875 -48.851562 144.1875 -56.0625 C 144.1875 -62.207031 142.113281 -66.878906 137.96875 -70.078125 C 133.832031 -73.285156 127.222656 -75.554688 118.140625 -76.890625 L 76.09375 -84.109375 C 58.46875 -87.046875 45.113281 -93.316406 36.03125 -102.921875 C 26.957031 -112.535156 22.421875 -124.550781 22.421875 -138.96875 C 22.421875 -151.519531 25.890625 -162.46875 32.828125 -171.8125 C 39.773438 -181.15625 49.789062 -188.5 62.875 -193.84375 C 75.957031 -199.1875 91.445312 -201.859375 109.34375 -201.859375 C 118.945312 -201.859375 128.488281 -200.988281 137.96875 -199.25 C 147.445312 -197.507812 156.257812 -194.972656 164.40625 -191.640625 C 172.550781 -188.304688 179.5625 -184.101562 185.4375 -179.03125 L 171.015625 -144.1875 C 165.941406 -148.457031 159.929688 -152.0625 152.984375 -155 C 146.046875 -157.9375 138.835938 -160.203125 131.359375 -161.796875 C 123.890625 -163.398438 116.679688 -164.203125 109.734375 -164.203125 C 95.847656 -164.203125 85.566406 -162.132812 78.890625 -158 C 72.222656 -153.863281 68.890625 -148.1875 68.890625 -140.96875 C 68.890625 -135.101562 70.820312 -130.5 74.6875 -127.15625 C 78.5625 -123.820312 84.640625 -121.488281 92.921875 -120.15625 L 134.171875 -112.9375 C 153.128906 -109.738281 167.28125 -103.664062 176.625 -94.71875 C 185.96875 -85.769531 190.640625 -73.6875 190.640625 -58.46875 C 190.640625 -45.382812 187.035156 -34.171875 179.828125 -24.828125 C 172.617188 -15.484375 162.535156 -8.34375 149.578125 -3.40625 C 136.628906 1.53125 121.347656 4 103.734375 4 Z M 103.734375 4 "/></g></g></g><g fill="#374151" fill-opacity="1"><g transform="translate(754.972086, 899.624903)"><g><path d="M 120.953125 4 C 100.128906 4 81.972656 -0.269531 66.484375 -8.8125 C 50.992188 -17.351562 38.976562 -29.363281 30.4375 -44.84375 C 21.894531 -60.332031 17.625 -78.492188 17.625 -99.328125 C 17.625 -120.421875 21.894531 -138.640625 30.4375 -153.984375 C 38.976562 -169.335938 50.992188 -181.15625 66.484375 -189.4375 C 81.972656 -197.71875 100.257812 -201.859375 121.34375 -201.859375 C 134.695312 -201.859375 147.710938 -199.785156 160.390625 -195.640625 C 173.078125 -191.503906 183.425781 -185.832031 191.4375 -178.625 L 176.21875 -141.375 C 169.007812 -147.519531 161 -152.191406 152.1875 -155.390625 C 143.375 -158.597656 134.832031 -160.203125 126.5625 -160.203125 C 108.664062 -160.203125 94.84375 -154.925781 85.09375 -144.375 C 75.351562 -133.832031 70.484375 -118.816406 70.484375 -99.328125 C 70.484375 -79.835938 75.351562 -64.679688 85.09375 -53.859375 C 94.84375 -43.046875 108.53125 -37.640625 126.15625 -37.640625 C 134.4375 -37.640625 143.046875 -39.242188 151.984375 -42.453125 C 160.929688 -45.660156 168.875 -50.195312 175.8125 -56.0625 L 191.4375 -18.828125 C 183.164062 -11.878906 172.753906 -6.335938 160.203125 -2.203125 C 147.648438 1.929688 134.566406 4 120.953125 4 Z M 120.953125 4 "/></g></g></g><g fill="#374151" fill-opacity="1"><g transform="translate(952.818761, 899.624903)"><g><path d="M 28.4375 0 L 28.4375 -197.84375 L 76.890625 -197.84375 L 76.890625 -149.78125 L 75.296875 -149.78125 C 79.296875 -165.269531 86.835938 -177.421875 97.921875 -186.234375 C 109.003906 -195.046875 123.351562 -199.984375 140.96875 -201.046875 L 159.796875 -202.65625 L 163.40625 -157 L 130.96875 -154.1875 C 114.675781 -152.59375 102.257812 -147.390625 93.71875 -138.578125 C 85.175781 -129.765625 80.90625 -118.015625 80.90625 -103.328125 L 80.90625 0 Z M 28.4375 0 "/></g></g></g><g fill="#374151" fill-opacity="1"><g transform="translate(1121.028492, 899.624903)"><g><path d="M 6 72.09375 L 6 33.234375 L 34.84375 33.234375 C 40.71875 33.234375 44.988281 31.832031 47.65625 29.03125 C 50.332031 26.226562 51.671875 21.757812 51.671875 15.625 L 51.671875 -61.28125 C 51.671875 -69.289062 53.335938 -76.566406 56.671875 -83.109375 C 60.003906 -89.648438 64.609375 -94.921875 70.484375 -98.921875 C 76.359375 -102.929688 83.164062 -105.066406 90.90625 -105.328125 L 90.90625 -104.9375 C 83.164062 -105.46875 76.359375 -107.664062 70.484375 -111.53125 C 64.609375 -115.40625 60.003906 -120.613281 56.671875 -127.15625 C 53.335938 -133.695312 51.671875 -140.972656 51.671875 -148.984375 L 51.671875 -225.875 C 51.671875 -232.019531 50.332031 -236.492188 47.65625 -239.296875 C 44.988281 -242.097656 40.71875 -243.5 34.84375 -243.5 L 6 -243.5 L 6 -282.359375 L 53.265625 -282.359375 C 68.753906 -282.359375 80.898438 -278.148438 89.703125 -269.734375 C 98.515625 -261.328125 102.921875 -249.378906 102.921875 -233.890625 L 102.921875 -156.1875 C 102.921875 -145.507812 104.722656 -137.898438 108.328125 -133.359375 C 111.929688 -128.828125 118.410156 -126.160156 127.765625 -125.359375 L 143.375 -124.15625 L 143.375 -86.109375 L 127.765625 -84.90625 C 118.410156 -84.375 111.929688 -81.835938 108.328125 -77.296875 C 104.722656 -72.753906 102.921875 -65.007812 102.921875 -54.0625 L 102.921875 23.625 C 102.921875 39.113281 98.515625 51.0625 89.703125 59.46875 C 80.898438 67.882812 68.753906 72.09375 53.265625 72.09375 Z M 6 72.09375 "/></g></g></g></svg>