<svg xmlns="http://www.w3.org/2000/svg" xmlns:xlink="http://www.w3.org/1999/xlink" width="2048" zoomAndPan="magnify" viewBox="0 0 1536 1535.999932" height="2048" preserveAspectRatio="xMidYMid meet" version="1.0"><defs><g/></defs><g fill="#374151" fill-opacity="1"><g transform="translate(414.946229, 864.357338)"><g><path d="M 97.328125 4 C 74.359375 4 57.132812 -2.203125 45.65625 -14.609375 C 34.175781 -27.023438 28.4375 -45.117188 28.4375 -68.890625 L 28.4375 -282.359375 L 80.5 -282.359375 L 80.5 -72.09375 C 80.5 -64.613281 81.566406 -58.335938 83.703125 -53.265625 C 85.835938 -48.191406 89.039062 -44.316406 93.3125 -41.640625 C 97.582031 -38.972656 102.789062 -37.640625 108.9375 -37.640625 C 112.40625 -37.640625 115.738281 -37.835938 118.9375 -38.234375 C 122.144531 -38.640625 125.351562 -39.242188 128.5625 -40.046875 L 129.359375 -0.40625 C 124.015625 0.9375 118.804688 2.003906 113.734375 2.796875 C 108.660156 3.597656 103.191406 4 97.328125 4 Z M 97.328125 4 "/></g></g></g><g fill="#374151" fill-opacity="1"><g transform="translate(548.712977, 864.357338)"><g><path d="M 103.734375 4 C 92.253906 4 81.171875 3.0625 70.484375 1.1875 C 59.804688 -0.675781 49.992188 -3.207031 41.046875 -6.40625 C 32.109375 -9.613281 24.300781 -13.753906 17.625 -18.828125 L 31.234375 -53.671875 C 37.910156 -49.398438 45.253906 -45.726562 53.265625 -42.65625 C 61.273438 -39.582031 69.550781 -37.3125 78.09375 -35.84375 C 86.632812 -34.375 94.910156 -33.640625 102.921875 -33.640625 C 116.804688 -33.640625 127.15625 -35.570312 133.96875 -39.4375 C 140.78125 -43.3125 144.1875 -48.851562 144.1875 -56.0625 C 144.1875 -62.207031 142.113281 -66.878906 137.96875 -70.078125 C 133.832031 -73.285156 127.222656 -75.554688 118.140625 -76.890625 L 76.09375 -84.109375 C 58.46875 -87.046875 45.113281 -93.316406 36.03125 -102.921875 C 26.957031 -112.535156 22.421875 -124.550781 22.421875 -138.96875 C 22.421875 -151.519531 25.890625 -162.46875 32.828125 -171.8125 C 39.773438 -181.15625 49.789062 -188.5 62.875 -193.84375 C 75.957031 -199.1875 91.445312 -201.859375 109.34375 -201.859375 C 118.945312 -201.859375 128.488281 -200.988281 137.96875 -199.25 C 147.445312 -197.507812 156.257812 -194.972656 164.40625 -191.640625 C 172.550781 -188.304688 179.5625 -184.101562 185.4375 -179.03125 L 171.015625 -144.1875 C 165.941406 -148.457031 159.929688 -152.0625 152.984375 -155 C 146.046875 -157.9375 138.835938 -160.203125 131.359375 -161.796875 C 123.890625 -163.398438 116.679688 -164.203125 109.734375 -164.203125 C 95.847656 -164.203125 85.566406 -162.132812 78.890625 -158 C 72.222656 -153.863281 68.890625 -148.1875 68.890625 -140.96875 C 68.890625 -135.101562 70.820312 -130.5 74.6875 -127.15625 C 78.5625 -123.820312 84.640625 -121.488281 92.921875 -120.15625 L 134.171875 -112.9375 C 153.128906 -109.738281 167.28125 -103.664062 176.625 -94.71875 C 185.96875 -85.769531 190.640625 -73.6875 190.640625 -58.46875 C 190.640625 -45.382812 187.035156 -34.171875 179.828125 -24.828125 C 172.617188 -15.484375 162.535156 -8.34375 149.578125 -3.40625 C 136.628906 1.53125 121.347656 4 103.734375 4 Z M 103.734375 4 "/></g></g></g><g fill="#374151" fill-opacity="1"><g transform="translate(754.970122, 864.357338)"><g><path d="M 120.953125 4 C 100.128906 4 81.972656 -0.269531 66.484375 -8.8125 C 50.992188 -17.351562 38.976562 -29.363281 30.4375 -44.84375 C 21.894531 -60.332031 17.625 -78.492188 17.625 -99.328125 C 17.625 -120.421875 21.894531 -138.640625 30.4375 -153.984375 C 38.976562 -169.335938 50.992188 -181.15625 66.484375 -189.4375 C 81.972656 -197.71875 100.257812 -201.859375 121.34375 -201.859375 C 134.695312 -201.859375 147.710938 -199.785156 160.390625 -195.640625 C 173.078125 -191.503906 183.425781 -185.832031 191.4375 -178.625 L 176.21875 -141.375 C 169.007812 -147.519531 161 -152.191406 152.1875 -155.390625 C 143.375 -158.597656 134.832031 -160.203125 126.5625 -160.203125 C 108.664062 -160.203125 94.84375 -154.925781 85.09375 -144.375 C 75.351562 -133.832031 70.484375 -118.816406 70.484375 -99.328125 C 70.484375 -79.835938 75.351562 -64.679688 85.09375 -53.859375 C 94.84375 -43.046875 108.53125 -37.640625 126.15625 -37.640625 C 134.4375 -37.640625 143.046875 -39.242188 151.984375 -42.453125 C 160.929688 -45.660156 168.875 -50.195312 175.8125 -56.0625 L 191.4375 -18.828125 C 183.164062 -11.878906 172.753906 -6.335938 160.203125 -2.203125 C 147.648438 1.929688 134.566406 4 120.953125 4 Z M 120.953125 4 "/></g></g></g><g fill="#374151" fill-opacity="1"><g transform="translate(952.816798, 864.357338)"><g><path d="M 28.4375 0 L 28.4375 -197.84375 L 76.890625 -197.84375 L 76.890625 -149.78125 L 75.296875 -149.78125 C 79.296875 -165.269531 86.835938 -177.421875 97.921875 -186.234375 C 109.003906 -195.046875 123.351562 -199.984375 140.96875 -201.046875 L 159.796875 -202.65625 L 163.40625 -157 L 130.96875 -154.1875 C 114.675781 -152.59375 102.257812 -147.390625 93.71875 -138.578125 C 85.175781 -129.765625 80.90625 -118.015625 80.90625 -103.328125 L 80.90625 0 Z M 28.4375 0 "/></g></g></g><g fill="#374151" fill-opacity="1"><g transform="translate(400.846259, 1021.982652)"><g><path d="M 19.5 14.046875 C 16.945312 14.046875 14.957031 13.351562 13.53125 11.96875 C 12.101562 10.59375 11.390625 8.628906 11.390625 6.078125 L 11.390625 -11.625 C 11.390625 -13.800781 11 -15.34375 10.21875 -16.25 C 9.4375 -17.164062 8.03125 -17.675781 6 -17.78125 L 3.671875 -17.9375 L 3.671875 -23.09375 L 6 -23.171875 C 8.03125 -23.328125 9.4375 -23.859375 10.21875 -24.765625 C 11 -25.671875 11.390625 -27.191406 11.390625 -29.328125 L 11.390625 -47.03125 C 11.390625 -49.582031 12.101562 -51.546875 13.53125 -52.921875 C 14.957031 -54.296875 16.945312 -54.984375 19.5 -54.984375 L 27.53125 -54.984375 L 27.53125 -49.765625 L 21.375 -49.765625 C 20.226562 -49.765625 19.367188 -49.488281 18.796875 -48.9375 C 18.222656 -48.394531 17.9375 -47.523438 17.9375 -46.328125 L 17.9375 -28.3125 C 17.9375 -26.851562 17.632812 -25.523438 17.03125 -24.328125 C 16.4375 -23.140625 15.617188 -22.207031 14.578125 -21.53125 C 13.546875 -20.851562 12.300781 -20.488281 10.84375 -20.4375 L 10.84375 -20.515625 C 12.300781 -20.460938 13.546875 -20.097656 14.578125 -19.421875 C 15.617188 -18.742188 16.4375 -17.816406 17.03125 -16.640625 C 17.632812 -15.472656 17.9375 -14.140625 17.9375 -12.640625 L 17.9375 5.375 C 17.9375 6.570312 18.222656 7.441406 18.796875 7.984375 C 19.367188 8.535156 20.226562 8.8125 21.375 8.8125 L 27.53125 8.8125 L 27.53125 14.046875 Z M 19.5 14.046875 "/></g></g></g><g fill="#374151" fill-opacity="1"><g transform="translate(427.288283, 1021.982652)"><g/></g></g><g fill="#374151" fill-opacity="1"><g transform="translate(446.242301, 1021.982652)"><g><path d="M 26.28125 0.703125 C 22.90625 0.703125 19.984375 -0.140625 17.515625 -1.828125 C 15.046875 -3.523438 13.316406 -5.828125 12.328125 -8.734375 L 12.71875 -8.734375 L 12.71875 0 L 6.390625 0 L 6.390625 -54.984375 L 13.03125 -54.984375 L 13.03125 -29.796875 L 12.5625 -29.796875 C 13.550781 -32.609375 15.253906 -34.832031 17.671875 -36.46875 C 20.085938 -38.101562 22.984375 -38.921875 26.359375 -38.921875 C 29.847656 -38.921875 32.878906 -38.101562 35.453125 -36.46875 C 38.023438 -34.832031 40.015625 -32.539062 41.421875 -29.59375 C 42.828125 -26.65625 43.53125 -23.160156 43.53125 -19.109375 C 43.53125 -15.160156 42.8125 -11.691406 41.375 -8.703125 C 39.945312 -5.710938 37.945312 -3.394531 35.375 -1.75 C 32.800781 -0.113281 29.769531 0.703125 26.28125 0.703125 Z M 24.875 -4.6875 C 28.570312 -4.6875 31.484375 -5.957031 33.609375 -8.5 C 35.742188 -11.050781 36.8125 -14.585938 36.8125 -19.109375 C 36.8125 -23.679688 35.742188 -27.226562 33.609375 -29.75 C 31.484375 -32.28125 28.570312 -33.546875 24.875 -33.546875 C 21.238281 -33.546875 18.34375 -32.28125 16.1875 -29.75 C 14.03125 -27.226562 12.953125 -23.679688 12.953125 -19.109375 C 12.953125 -14.585938 14.03125 -11.050781 16.1875 -8.5 C 18.34375 -5.957031 21.238281 -4.6875 24.875 -4.6875 Z M 24.875 -4.6875 "/></g></g></g><g fill="#374151" fill-opacity="1"><g transform="translate(491.950337, 1021.982652)"><g><path d="M 6.390625 0 L 6.390625 -38.21875 L 12.640625 -38.21875 L 12.640625 -29.328125 L 12.328125 -29.328125 C 13.210938 -32.296875 14.785156 -34.570312 17.046875 -36.15625 C 19.304688 -37.738281 22.175781 -38.660156 25.65625 -38.921875 L 28.546875 -39.15625 L 29.171875 -33.234375 L 24.34375 -32.765625 C 20.75 -32.453125 17.976562 -31.289062 16.03125 -29.28125 C 14.082031 -27.28125 13.109375 -24.671875 13.109375 -21.453125 L 13.109375 0 Z M 6.390625 0 "/></g></g></g><g fill="#374151" fill-opacity="1"><g transform="translate(520.264363, 1021.982652)"><g><path d="M 22.703125 0.703125 C 18.898438 0.703125 15.609375 -0.113281 12.828125 -1.75 C 10.046875 -3.394531 7.898438 -5.695312 6.390625 -8.65625 C 4.890625 -11.625 4.140625 -15.132812 4.140625 -19.1875 C 4.140625 -23.1875 4.890625 -26.65625 6.390625 -29.59375 C 7.898438 -32.539062 10.046875 -34.832031 12.828125 -36.46875 C 15.609375 -38.101562 18.898438 -38.921875 22.703125 -38.921875 C 26.492188 -38.921875 29.78125 -38.101562 32.5625 -36.46875 C 35.34375 -34.832031 37.488281 -32.539062 39 -29.59375 C 40.507812 -26.65625 41.265625 -23.1875 41.265625 -19.1875 C 41.265625 -15.132812 40.507812 -11.625 39 -8.65625 C 37.488281 -5.695312 35.34375 -3.394531 32.5625 -1.75 C 29.78125 -0.113281 26.492188 0.703125 22.703125 0.703125 Z M 22.703125 -4.765625 C 26.390625 -4.765625 29.296875 -6.035156 31.421875 -8.578125 C 33.554688 -11.128906 34.625 -14.664062 34.625 -19.1875 C 34.625 -23.707031 33.554688 -27.21875 31.421875 -29.71875 C 29.296875 -32.21875 26.390625 -33.46875 22.703125 -33.46875 C 19.003906 -33.46875 16.085938 -32.21875 13.953125 -29.71875 C 11.828125 -27.21875 10.765625 -23.707031 10.765625 -19.1875 C 10.765625 -14.664062 11.84375 -11.128906 14 -8.578125 C 16.15625 -6.035156 19.054688 -4.765625 22.703125 -4.765625 Z M 22.703125 -4.765625 "/></g></g></g><g fill="#374151" fill-opacity="1"><g transform="translate(563.710411, 1021.982652)"><g><path d="M 15.828125 0 L 2.109375 -38.21875 L 8.890625 -38.21875 L 19.890625 -5.921875 L 18.71875 -5.921875 L 30.5 -38.21875 L 36.109375 -38.21875 L 47.734375 -5.921875 L 46.640625 -5.921875 L 57.71875 -38.21875 L 64.34375 -38.21875 L 50.46875 0 L 44.21875 0 L 32.140625 -33 L 34.234375 -33 L 22.15625 0 Z M 15.828125 0 "/></g></g></g><g fill="#374151" fill-opacity="1"><g transform="translate(628.138468, 1021.982652)"><g><path d="M 19.890625 0.703125 C 17.859375 0.703125 15.867188 0.503906 13.921875 0.109375 C 11.972656 -0.273438 10.164062 -0.816406 8.5 -1.515625 C 6.832031 -2.222656 5.40625 -3.070312 4.21875 -4.0625 L 6.3125 -8.8125 C 7.613281 -7.820312 9.019531 -7 10.53125 -6.34375 C 12.039062 -5.695312 13.597656 -5.234375 15.203125 -4.953125 C 16.816406 -4.671875 18.40625 -4.53125 19.96875 -4.53125 C 23.03125 -4.53125 25.378906 -5.035156 27.015625 -6.046875 C 28.660156 -7.054688 29.484375 -8.472656 29.484375 -10.296875 C 29.484375 -11.804688 28.972656 -12.972656 27.953125 -13.796875 C 26.941406 -14.628906 25.320312 -15.28125 23.09375 -15.75 L 15.515625 -17.15625 C 12.140625 -17.832031 9.59375 -19.039062 7.875 -20.78125 C 6.15625 -22.53125 5.296875 -24.78125 5.296875 -27.53125 C 5.296875 -29.820312 5.921875 -31.820312 7.171875 -33.53125 C 8.421875 -35.25 10.210938 -36.578125 12.546875 -37.515625 C 14.890625 -38.453125 17.625 -38.921875 20.75 -38.921875 C 22.519531 -38.921875 24.285156 -38.738281 26.046875 -38.375 C 27.816406 -38.007812 29.46875 -37.472656 31 -36.765625 C 32.539062 -36.066406 33.828125 -35.195312 34.859375 -34.15625 L 32.6875 -29.484375 C 31.644531 -30.421875 30.457031 -31.210938 29.125 -31.859375 C 27.800781 -32.515625 26.410156 -33 24.953125 -33.3125 C 23.503906 -33.625 22.078125 -33.78125 20.671875 -33.78125 C 17.753906 -33.78125 15.488281 -33.234375 13.875 -32.140625 C 12.269531 -31.046875 11.46875 -29.585938 11.46875 -27.765625 C 11.46875 -26.253906 11.945312 -25.070312 12.90625 -24.21875 C 13.875 -23.363281 15.394531 -22.726562 17.46875 -22.3125 L 24.875 -20.828125 C 28.519531 -20.097656 31.238281 -18.910156 33.03125 -17.265625 C 34.820312 -15.628906 35.71875 -13.410156 35.71875 -10.609375 C 35.71875 -8.265625 35.054688 -6.25 33.734375 -4.5625 C 32.410156 -2.875 30.578125 -1.570312 28.234375 -0.65625 C 25.890625 0.25 23.109375 0.703125 19.890625 0.703125 Z M 19.890625 0.703125 "/></g></g></g><g fill="#374151" fill-opacity="1"><g transform="translate(665.968512, 1021.982652)"><g><path d="M 5.609375 -47.578125 L 5.609375 -54.984375 L 13.734375 -54.984375 L 13.734375 -47.578125 Z M 6.390625 0 L 6.390625 -38.21875 L 13.03125 -38.21875 L 13.03125 0 Z M 6.390625 0 "/></g></g></g><g fill="#374151" fill-opacity="1"><g transform="translate(683.518529, 1021.982652)"><g><path d="M 6.390625 0 L 6.390625 -38.21875 L 12.71875 -38.21875 L 12.71875 -29.796875 L 12.328125 -29.796875 C 13.472656 -32.753906 15.289062 -35.015625 17.78125 -36.578125 C 20.28125 -38.140625 23.113281 -38.921875 26.28125 -38.921875 C 29.40625 -38.921875 31.992188 -38.375 34.046875 -37.28125 C 36.097656 -36.1875 37.644531 -34.507812 38.6875 -32.25 C 39.726562 -29.988281 40.25 -27.144531 40.25 -23.71875 L 40.25 0 L 33.625 0 L 33.625 -23.328125 C 33.625 -25.503906 33.320312 -27.347656 32.71875 -28.859375 C 32.125 -30.367188 31.175781 -31.5 29.875 -32.25 C 28.570312 -33.007812 26.878906 -33.390625 24.796875 -33.390625 C 22.460938 -33.390625 20.410156 -32.878906 18.640625 -31.859375 C 16.867188 -30.847656 15.488281 -29.457031 14.5 -27.6875 C 13.519531 -25.914062 13.03125 -23.890625 13.03125 -21.609375 L 13.03125 0 Z M 6.390625 0 "/></g></g></g><g fill="#374151" fill-opacity="1"><g transform="translate(728.056573, 1021.982652)"><g><path d="M 23.171875 14.734375 C 19.992188 14.734375 16.9375 14.289062 14 13.40625 C 11.0625 12.53125 8.472656 11.257812 6.234375 9.59375 L 8.421875 4.609375 C 9.929688 5.640625 11.476562 6.503906 13.0625 7.203125 C 14.644531 7.910156 16.253906 8.429688 17.890625 8.765625 C 19.535156 9.109375 21.21875 9.28125 22.9375 9.28125 C 26.832031 9.28125 29.804688 8.265625 31.859375 6.234375 C 33.910156 4.210938 34.9375 1.351562 34.9375 -2.34375 L 34.9375 -10.296875 L 35.25 -10.296875 C 34.425781 -7.484375 32.765625 -5.234375 30.265625 -3.546875 C 27.765625 -1.859375 24.878906 -1.015625 21.609375 -1.015625 C 18.066406 -1.015625 14.984375 -1.804688 12.359375 -3.390625 C 9.734375 -4.972656 7.707031 -7.195312 6.28125 -10.0625 C 4.851562 -12.925781 4.140625 -16.226562 4.140625 -19.96875 C 4.140625 -23.757812 4.851562 -27.082031 6.28125 -29.9375 C 7.707031 -32.800781 9.734375 -35.015625 12.359375 -36.578125 C 14.984375 -38.140625 18.066406 -38.921875 21.609375 -38.921875 C 24.929688 -38.921875 27.84375 -38.078125 30.34375 -36.390625 C 32.84375 -34.703125 34.503906 -32.398438 35.328125 -29.484375 L 34.9375 -29.484375 L 34.9375 -38.21875 L 41.34375 -38.21875 L 41.34375 -3.125 C 41.34375 0.675781 40.640625 3.914062 39.234375 6.59375 C 37.828125 9.269531 35.769531 11.296875 33.0625 12.671875 C 30.363281 14.046875 27.066406 14.734375 23.171875 14.734375 Z M 22.78125 -6.390625 C 26.46875 -6.390625 29.398438 -7.625 31.578125 -10.09375 C 33.765625 -12.570312 34.859375 -15.863281 34.859375 -19.96875 C 34.859375 -24.125 33.765625 -27.425781 31.578125 -29.875 C 29.398438 -32.320312 26.46875 -33.546875 22.78125 -33.546875 C 19.082031 -33.546875 16.15625 -32.320312 14 -29.875 C 11.84375 -27.425781 10.765625 -24.125 10.765625 -19.96875 C 10.765625 -15.863281 11.84375 -12.570312 14 -10.09375 C 16.15625 -7.625 19.082031 -6.390625 22.78125 -6.390625 Z M 22.78125 -6.390625 "/></g></g></g><g fill="#374151" fill-opacity="1"><g transform="translate(773.842618, 1021.982652)"><g/></g></g><g fill="#374151" fill-opacity="1"><g transform="translate(792.796618, 1021.982652)"><g><path d="M 8.578125 0 L 8.578125 -33.078125 L 0.9375 -33.078125 L 0.9375 -38.21875 L 10.375 -38.21875 L 8.578125 -36.5 L 8.578125 -39.234375 C 8.578125 -44.273438 9.914062 -48.109375 12.59375 -50.734375 C 15.269531 -53.359375 19.257812 -54.800781 24.5625 -55.0625 L 28.078125 -55.296875 L 28.625 -50 L 24.484375 -49.765625 C 22.515625 -49.660156 20.835938 -49.253906 19.453125 -48.546875 C 18.078125 -47.847656 17.023438 -46.8125 16.296875 -45.4375 C 15.566406 -44.0625 15.203125 -42.253906 15.203125 -40.015625 L 15.203125 -37.28125 L 14.28125 -38.21875 L 26.75 -38.21875 L 26.75 -33.078125 L 15.203125 -33.078125 L 15.203125 0 Z M 8.578125 0 "/></g></g></g><g fill="#374151" fill-opacity="1"><g transform="translate(819.004639, 1021.982652)"><g><path d="M 6.390625 0 L 6.390625 -38.21875 L 12.640625 -38.21875 L 12.640625 -29.328125 L 12.328125 -29.328125 C 13.210938 -32.296875 14.785156 -34.570312 17.046875 -36.15625 C 19.304688 -37.738281 22.175781 -38.660156 25.65625 -38.921875 L 28.546875 -39.15625 L 29.171875 -33.234375 L 24.34375 -32.765625 C 20.75 -32.453125 17.976562 -31.289062 16.03125 -29.28125 C 14.082031 -27.28125 13.109375 -24.671875 13.109375 -21.453125 L 13.109375 0 Z M 6.390625 0 "/></g></g></g><g fill="#374151" fill-opacity="1"><g transform="translate(847.318647, 1021.982652)"><g><path d="M 24.265625 0.703125 C 20.097656 0.703125 16.503906 -0.0859375 13.484375 -1.671875 C 10.472656 -3.265625 8.160156 -5.539062 6.546875 -8.5 C 4.941406 -11.46875 4.140625 -15.003906 4.140625 -19.109375 C 4.140625 -23.003906 4.90625 -26.4375 6.4375 -29.40625 C 7.96875 -32.375 10.132812 -34.703125 12.9375 -36.390625 C 15.75 -38.078125 19.03125 -38.921875 22.78125 -38.921875 C 26.414062 -38.921875 29.492188 -38.140625 32.015625 -36.578125 C 34.535156 -35.015625 36.472656 -32.816406 37.828125 -29.984375 C 39.179688 -27.148438 39.859375 -23.757812 39.859375 -19.8125 L 39.859375 -17.46875 L 9.125 -17.46875 L 9.125 -22 L 35.484375 -22 L 34.15625 -20.75 C 34.15625 -24.90625 33.191406 -28.140625 31.265625 -30.453125 C 29.347656 -32.773438 26.546875 -33.9375 22.859375 -33.9375 C 20.304688 -33.9375 18.109375 -33.347656 16.265625 -32.171875 C 14.421875 -31.003906 13.003906 -29.367188 12.015625 -27.265625 C 11.023438 -25.160156 10.53125 -22.675781 10.53125 -19.8125 L 10.53125 -19.1875 C 10.53125 -16.019531 11.0625 -13.367188 12.125 -11.234375 C 13.195312 -9.097656 14.769531 -7.472656 16.84375 -6.359375 C 18.925781 -5.242188 21.425781 -4.6875 24.34375 -4.6875 C 26.519531 -4.6875 28.675781 -5.007812 30.8125 -5.65625 C 32.945312 -6.300781 34.972656 -7.40625 36.890625 -8.96875 L 39.15625 -4.296875 C 37.28125 -2.679688 35.003906 -1.441406 32.328125 -0.578125 C 29.648438 0.273438 26.960938 0.703125 24.265625 0.703125 Z M 24.265625 0.703125 "/></g></g></g><g fill="#374151" fill-opacity="1"><g transform="translate(889.048701, 1021.982652)"><g><path d="M 24.265625 0.703125 C 20.097656 0.703125 16.503906 -0.0859375 13.484375 -1.671875 C 10.472656 -3.265625 8.160156 -5.539062 6.546875 -8.5 C 4.941406 -11.46875 4.140625 -15.003906 4.140625 -19.109375 C 4.140625 -23.003906 4.90625 -26.4375 6.4375 -29.40625 C 7.96875 -32.375 10.132812 -34.703125 12.9375 -36.390625 C 15.75 -38.078125 19.03125 -38.921875 22.78125 -38.921875 C 26.414062 -38.921875 29.492188 -38.140625 32.015625 -36.578125 C 34.535156 -35.015625 36.472656 -32.816406 37.828125 -29.984375 C 39.179688 -27.148438 39.859375 -23.757812 39.859375 -19.8125 L 39.859375 -17.46875 L 9.125 -17.46875 L 9.125 -22 L 35.484375 -22 L 34.15625 -20.75 C 34.15625 -24.90625 33.191406 -28.140625 31.265625 -30.453125 C 29.347656 -32.773438 26.546875 -33.9375 22.859375 -33.9375 C 20.304688 -33.9375 18.109375 -33.347656 16.265625 -32.171875 C 14.421875 -31.003906 13.003906 -29.367188 12.015625 -27.265625 C 11.023438 -25.160156 10.53125 -22.675781 10.53125 -19.8125 L 10.53125 -19.1875 C 10.53125 -16.019531 11.0625 -13.367188 12.125 -11.234375 C 13.195312 -9.097656 14.769531 -7.472656 16.84375 -6.359375 C 18.925781 -5.242188 21.425781 -4.6875 24.34375 -4.6875 C 26.519531 -4.6875 28.675781 -5.007812 30.8125 -5.65625 C 32.945312 -6.300781 34.972656 -7.40625 36.890625 -8.96875 L 39.15625 -4.296875 C 37.28125 -2.679688 35.003906 -1.441406 32.328125 -0.578125 C 29.648438 0.273438 26.960938 0.703125 24.265625 0.703125 Z M 24.265625 0.703125 "/></g></g></g><g fill="#374151" fill-opacity="1"><g transform="translate(930.778754, 1021.982652)"><g><path d="M 21.375 0.703125 C 17.882812 0.703125 14.835938 -0.113281 12.234375 -1.75 C 9.640625 -3.394531 7.640625 -5.710938 6.234375 -8.703125 C 4.835938 -11.691406 4.140625 -15.160156 4.140625 -19.109375 C 4.140625 -23.160156 4.835938 -26.65625 6.234375 -29.59375 C 7.640625 -32.539062 9.628906 -34.832031 12.203125 -36.46875 C 14.773438 -38.101562 17.804688 -38.921875 21.296875 -38.921875 C 24.671875 -38.921875 27.566406 -38.101562 29.984375 -36.46875 C 32.410156 -34.832031 34.085938 -32.609375 35.015625 -29.796875 L 34.546875 -29.796875 L 34.546875 -54.984375 L 41.1875 -54.984375 L 41.1875 0 L 34.9375 0 L 34.9375 -8.734375 L 35.25 -8.734375 C 34.320312 -5.828125 32.617188 -3.523438 30.140625 -1.828125 C 27.671875 -0.140625 24.75 0.703125 21.375 0.703125 Z M 22.703125 -4.6875 C 26.390625 -4.6875 29.3125 -5.957031 31.46875 -8.5 C 33.625 -11.050781 34.703125 -14.585938 34.703125 -19.109375 C 34.703125 -23.679688 33.625 -27.226562 31.46875 -29.75 C 29.3125 -32.28125 26.414062 -33.546875 22.78125 -33.546875 C 19.082031 -33.546875 16.15625 -32.28125 14 -29.75 C 11.84375 -27.226562 10.765625 -23.679688 10.765625 -19.109375 C 10.765625 -14.585938 11.84375 -11.050781 14 -8.5 C 16.15625 -5.957031 19.054688 -4.6875 22.703125 -4.6875 Z M 22.703125 -4.6875 "/></g></g></g><g fill="#374151" fill-opacity="1"><g transform="translate(976.486774, 1021.982652)"><g><path d="M 22.703125 0.703125 C 18.898438 0.703125 15.609375 -0.113281 12.828125 -1.75 C 10.046875 -3.394531 7.898438 -5.695312 6.390625 -8.65625 C 4.890625 -11.625 4.140625 -15.132812 4.140625 -19.1875 C 4.140625 -23.1875 4.890625 -26.65625 6.390625 -29.59375 C 7.898438 -32.539062 10.046875 -34.832031 12.828125 -36.46875 C 15.609375 -38.101562 18.898438 -38.921875 22.703125 -38.921875 C 26.492188 -38.921875 29.78125 -38.101562 32.5625 -36.46875 C 35.34375 -34.832031 37.488281 -32.539062 39 -29.59375 C 40.507812 -26.65625 41.265625 -23.1875 41.265625 -19.1875 C 41.265625 -15.132812 40.507812 -11.625 39 -8.65625 C 37.488281 -5.695312 35.34375 -3.394531 32.5625 -1.75 C 29.78125 -0.113281 26.492188 0.703125 22.703125 0.703125 Z M 22.703125 -4.765625 C 26.390625 -4.765625 29.296875 -6.035156 31.421875 -8.578125 C 33.554688 -11.128906 34.625 -14.664062 34.625 -19.1875 C 34.625 -23.707031 33.554688 -27.21875 31.421875 -29.71875 C 29.296875 -32.21875 26.390625 -33.46875 22.703125 -33.46875 C 19.003906 -33.46875 16.085938 -32.21875 13.953125 -29.71875 C 11.828125 -27.21875 10.765625 -23.707031 10.765625 -19.1875 C 10.765625 -14.664062 11.84375 -11.128906 14 -8.578125 C 16.15625 -6.035156 19.054688 -4.765625 22.703125 -4.765625 Z M 22.703125 -4.765625 "/></g></g></g><g fill="#374151" fill-opacity="1"><g transform="translate(1019.9328, 1021.982652)"><g><path d="M 6.546875 0 L 6.546875 -38.21875 L 12.875 -38.21875 L 12.875 -29.796875 L 12.40625 -29.796875 C 13.082031 -31.617188 14.03125 -33.21875 15.25 -34.59375 C 16.46875 -35.96875 17.9375 -37.03125 19.65625 -37.78125 C 21.375 -38.539062 23.269531 -38.921875 25.34375 -38.921875 C 28.625 -38.921875 31.300781 -38.113281 33.375 -36.5 C 35.457031 -34.894531 36.8125 -32.632812 37.4375 -29.71875 L 36.8125 -29.71875 C 37.800781 -32.425781 39.460938 -34.632812 41.796875 -36.34375 C 44.140625 -38.0625 46.976562 -38.921875 50.3125 -38.921875 C 53.21875 -38.921875 55.632812 -38.359375 57.5625 -37.234375 C 59.488281 -36.117188 60.941406 -34.441406 61.921875 -32.203125 C 62.910156 -29.972656 63.40625 -27.144531 63.40625 -23.71875 L 63.40625 0 L 56.859375 0 L 56.859375 -23.328125 C 56.859375 -26.703125 56.25 -29.222656 55.03125 -30.890625 C 53.8125 -32.554688 51.71875 -33.390625 48.75 -33.390625 C 46.613281 -33.390625 44.753906 -32.878906 43.171875 -31.859375 C 41.585938 -30.847656 40.378906 -29.457031 39.546875 -27.6875 C 38.710938 -25.914062 38.296875 -23.835938 38.296875 -21.453125 L 38.296875 0 L 31.671875 0 L 31.671875 -23.328125 C 31.671875 -26.703125 31.03125 -29.222656 29.75 -30.890625 C 28.476562 -32.554688 26.441406 -33.390625 23.640625 -33.390625 C 21.503906 -33.390625 19.640625 -32.867188 18.046875 -31.828125 C 16.460938 -30.785156 15.253906 -29.363281 14.421875 -27.5625 C 13.597656 -25.769531 13.1875 -23.785156 13.1875 -21.609375 L 13.1875 0 Z M 6.546875 0 "/></g></g></g><g fill="#374151" fill-opacity="1"><g transform="translate(1087.792871, 1021.982652)"><g/></g></g><g fill="#374151" fill-opacity="1"><g transform="translate(1106.746895, 1021.982652)"><g><path d="M 0.859375 14.046875 L 0.859375 8.8125 L 6.9375 8.8125 C 8.132812 8.8125 9.003906 8.535156 9.546875 7.984375 C 10.097656 7.441406 10.375 6.570312 10.375 5.375 L 10.375 -12.640625 C 10.375 -14.140625 10.671875 -15.472656 11.265625 -16.640625 C 11.867188 -17.816406 12.710938 -18.742188 13.796875 -19.421875 C 14.890625 -20.097656 16.140625 -20.460938 17.546875 -20.515625 L 17.546875 -20.4375 C 16.140625 -20.488281 14.890625 -20.851562 13.796875 -21.53125 C 12.710938 -22.207031 11.867188 -23.140625 11.265625 -24.328125 C 10.671875 -25.523438 10.375 -26.851562 10.375 -28.3125 L 10.375 -46.328125 C 10.375 -47.523438 10.097656 -48.394531 9.546875 -48.9375 C 9.003906 -49.488281 8.132812 -49.765625 6.9375 -49.765625 L 0.859375 -49.765625 L 0.859375 -54.984375 L 8.890625 -54.984375 C 11.441406 -54.984375 13.414062 -54.296875 14.8125 -52.921875 C 16.21875 -51.546875 16.921875 -49.582031 16.921875 -47.03125 L 16.921875 -29.328125 C 16.921875 -27.191406 17.320312 -25.671875 18.125 -24.765625 C 18.9375 -23.859375 20.359375 -23.328125 22.390625 -23.171875 L 24.640625 -23.015625 L 24.640625 -17.9375 L 22.390625 -17.78125 C 20.359375 -17.675781 18.9375 -17.164062 18.125 -16.25 C 17.320312 -15.34375 16.921875 -13.800781 16.921875 -11.625 L 16.921875 6.078125 C 16.921875 8.628906 16.21875 10.59375 14.8125 11.96875 C 13.414062 13.351562 11.441406 14.046875 8.890625 14.046875 Z M 0.859375 14.046875 "/></g></g></g></svg>